<svg xmlns="http://www.w3.org/2000/svg" width="547.885" height="361.75" viewBox="0 0 547.885 361.75">
  <g id="business-team-working-on-data-analysis-2887000-0" transform="translate(-85 -58)">
    <g id="plant" transform="translate(565.784 171.922)">
      <path id="Path_1" data-name="Path 1" d="M641.518,241.17c7.688-1.08,9.622,7.723,4.664,9.7s-17.3-5.911-17.3-5.911Z" transform="translate(-596.144 -182.141)" fill="#e7f4fe"/>
      <path id="Path_2" data-name="Path 2" d="M655.679,212.1c7.34-2.528,10.919,5.745,6.43,8.632s-18.112-2.5-18.112-2.5Z" transform="translate(-596.988 -180.497)" fill="#e7f4fe"/>
      <path id="Path_3" data-name="Path 3" d="M628.33,243.9s.457-24.207-6.218-21.526C615.627,224.981,620.166,239.618,628.33,243.9Z" transform="translate(-595.594 -181.085)" fill="#e7f4fe"/>
      <path id="Path_4" data-name="Path 4" d="M624.892,258.483c8.908-3.8,11.461,4.573,7.3,7.912s-18.275-.594-18.275-.594Z" transform="translate(-595.308 -183.058)" fill="#e7f4fe"/>
      <path id="Path_5" data-name="Path 5" d="M613.114,265.182s-1.422-22.626-12.24-18.768C589.4,250.5,604.053,263.47,613.114,265.182Z" transform="translate(-594.346 -182.414)" fill="#e7f4fe"/>
      <path id="Path_6" data-name="Path 6" d="M642.807,217.758s-7.23-21.487-16.681-14.961C616.1,209.718,633.612,218.45,642.807,217.758Z" transform="translate(-595.822 -179.935)" fill="#e7f4fe"/>
      <path id="Path_7" data-name="Path 7" d="M621.075,280c3.758-8.2,11.577-4.271,10.717,1s-13.978,11.787-13.978,11.787Z" transform="translate(-595.526 -184.051)" fill="#e7f4fe"/>
      <path id="Path_8" data-name="Path 8" d="M616.634,293.207s-16.461-15.052-21.655-5.757C590.217,295.974,608.755,298,616.634,293.207Z" transform="translate(-594.208 -184.56)" fill="#e7f4fe"/>
      <path id="Path_9" data-name="Path 9" d="M642.525,332.794s7.552-13.636,12.87-9.257S650.839,333.525,642.525,332.794Z" transform="translate(-596.905 -186.695)" fill="#e7f4fe"/>
      <path id="Path_10" data-name="Path 10" d="M641.737,332.794s-7.552-13.636-12.87-9.257S633.424,333.525,641.737,332.794Z" transform="translate(-596.059 -186.695)" fill="#e7f4fe"/>
      <path id="Path_11" data-name="Path 11" d="M637.614,316.118s-1.951-23.508,11.816-26.965S666.417,309.668,637.614,316.118Z" transform="translate(-596.626 -184.806)" fill="#e7f4fe"/>
      <path id="Path_12" data-name="Path 12" d="M643.446,217.312s-7.817-31.4,2.8-37.7C658.452,172.366,659.011,208.493,643.446,217.312Z" transform="translate(-596.802 -178.657)" fill="#e7f4fe"/>
      <path id="Path_13" data-name="Path 13" d="M635.831,317.01s-8.753-12.216-23.5-12.216S607.713,321.852,635.831,317.01Z" transform="translate(-594.843 -185.698)" fill="#e7f4fe"/>
      <path id="Path_14" data-name="Path 14" d="M642.182,344.939a.738.738,0,0,1-.737-.737c0-28.931-9.273-38.54-17.454-47.02-6.194-6.419-12.043-12.482-12.043-25.922,0-15.867,7.428-21.776,14.612-27.492,6.743-5.365,13.715-10.912,14.889-24.992a.737.737,0,0,1,1.469.123c-1.226,14.714-8.452,20.463-15.44,26.024-7.228,5.751-14.054,11.182-14.054,26.338,0,12.846,5.389,18.431,11.63,24.9,8.375,8.68,17.868,18.518,17.868,48.045A.738.738,0,0,1,642.182,344.939Z" transform="translate(-595.199 -180.858)" fill="#d0e7fe"/>
    </g>
    <g id="plant-2" data-name="plant" transform="translate(85 173.623)">
      <path id="Path_15" data-name="Path 15" d="M107.238,223.108a.363.363,0,0,1-.29-.144c-4.032-5.386-4.442-9.863-4.078-12.671a10.654,10.654,0,0,1,1.813-4.906.361.361,0,1,1,.568.444,10.162,10.162,0,0,0-1.671,4.6c-.337,2.666.074,6.931,3.946,12.1a.361.361,0,0,1-.073.505.357.357,0,0,1-.215.072Z" transform="translate(-85.992 -181.842)" fill="#d0e7fe"/>
      <path id="Path_16" data-name="Path 16" d="M175.005,350.786c-30.819-34.728-62.13-28.413-62.105-39.388.008-3.361,9.922-13.23,24.354-9.02S171.4,320.343,175.005,350.786Z" transform="translate(-86.557 -187.207)" fill="#dceefd"/>
      <path id="Path_17" data-name="Path 17" d="M89.26,198.211c28.681-47.08,140.415-1.2,84.189,145.827,0,0-5.331-59.239-36.9-81.79S73.324,224.369,89.26,198.211Z" transform="translate(-85 -180.458)" fill="#f3f9ff"/>
      <path id="Path_18" data-name="Path 18" d="M178.677,349.78c26.954-15.109,54.168-18.464,55.269-40.591.749-15.033-3.307-25.858-14.132-25.858C213.772,283.33,188.825,300.344,178.677,349.78Z" transform="translate(-90.229 -186.201)" fill="#e7f4fe"/>
      <path id="Path_19" data-name="Path 19" d="M174.008,291.877a.361.361,0,0,1-.35-.278c-.019-.078-1.933-7.857-7.444-7.928a.361.361,0,0,1-.356-.365.349.349,0,0,1,.365-.356c6.075.078,8.055,8.141,8.137,8.483a.363.363,0,0,1-.352.444Z" transform="translate(-89.513 -186.179)" fill="#d0e7fe"/>
      <path id="Path_20" data-name="Path 20" d="M177.1,310.2a.369.369,0,0,1-.063-.006.361.361,0,0,1-.293-.417c.042-.24,1.083-5.893,4.841-7.3a.361.361,0,1,1,.253.676c-3.371,1.264-4.373,6.7-4.384,6.752A.36.36,0,0,1,177.1,310.2Z" transform="translate(-90.121 -187.268)" fill="#d0e7fe"/>
      <path id="Path_21" data-name="Path 21" d="M161.949,252.341a.361.361,0,0,1-.34-.24c-5.414-15.248-21.309-12.507-21.468-12.475a.366.366,0,0,1-.42-.29.359.359,0,0,1,.289-.42c.166-.029,16.657-2.893,22.28,12.943a.362.362,0,0,1-.219.461.367.367,0,0,1-.122.021Z" transform="translate(-88.054 -183.709)" fill="#d0e7fe"/>
      <path id="Path_22" data-name="Path 22" d="M168.337,266.054a.36.36,0,0,1-.348-.267c-1.947-7.238-.249-12.34,1.518-15.344a15.163,15.163,0,0,1,4.378-4.856.361.361,0,1,1,.388.608c-.093.059-9.178,6.059-5.588,19.4a.36.36,0,0,1-.255.442A.4.4,0,0,1,168.337,266.054Z" transform="translate(-89.584 -184.091)" fill="#d0e7fe"/>
      <path id="Path_23" data-name="Path 23" d="M175.482,345.782a.359.359,0,0,1-.326-.207c-14.626-30.838-50.388-40.716-50.748-40.812a.362.362,0,0,1-.256-.442.357.357,0,0,1,.442-.256c.358.1,35.461,9.79,50.592,39.928a279.043,279.043,0,0,0-4.242-58.026c-5.338-28.639-18.225-65.771-49.3-80.033a.36.36,0,1,1,.3-.655c17.31,7.944,39.984,28.371,49.711,80.57a277,277,0,0,1,4.186,59.593.359.359,0,0,1-.292.332.273.273,0,0,1-.068.008Z" transform="translate(-87.034 -181.842)" fill="#d0e7fe"/>
      <path id="Path_24" data-name="Path 24" d="M178.657,350.835a.362.362,0,0,1-.224-.645c35.123-27.775,41.961-53.891,42.026-54.152a.363.363,0,0,1,.437-.262.359.359,0,0,1,.262.437c-.065.262-6.944,26.6-42.279,54.543A.354.354,0,0,1,178.657,350.835Z" transform="translate(-90.208 -186.895)" fill="#d0e7fe"/>
      <path id="Path_25" data-name="Path 25" d="M145.549,319.38a.355.355,0,0,1-.191-.056,7.814,7.814,0,0,1-3.462-9.194.361.361,0,1,1,.677.251,6.986,6.986,0,0,0,3.169,8.331.361.361,0,0,1-.193.667Z" transform="translate(-88.154 -187.684)" fill="#d0e7fe"/>
      <path id="Path_26" data-name="Path 26" d="M159.331,329.795a.362.362,0,0,1-.25-.1c-5.573-5.354-13.233-5.262-13.307-5.263h-.008a.361.361,0,0,1-.008-.722,20.906,20.906,0,0,1,13.823,5.464.361.361,0,0,1,.01.51A.354.354,0,0,1,159.331,329.795Z" transform="translate(-88.372 -188.455)" fill="#d0e7fe"/>
      <path id="Path_27" data-name="Path 27" d="M210.563,319.969a.355.355,0,0,1-.22-.076.361.361,0,0,1-.064-.506c6.652-8.585.061-17.753-.006-17.845a.361.361,0,0,1,.583-.428c.071.1,6.976,9.7-.006,18.715a.366.366,0,0,1-.287.14Z" transform="translate(-91.989 -187.185)" fill="#d0e7fe"/>
      <path id="Path_28" data-name="Path 28" d="M195.172,338.8a.361.361,0,0,1-.245-.625c9.564-8.929,16.056-8.792,16.324-8.782a.361.361,0,0,1-.026.721c-.058,0-6.488-.111-15.806,8.588a.365.365,0,0,1-.246.1Z" transform="translate(-91.13 -188.772)" fill="#d0e7fe"/>
    </g>
    <g id="cog" transform="translate(165.104 58)">
      <path id="Path_29" data-name="Path 29" d="M325.178,153.585a14.836,14.836,0,0,1,0-24.361c9.423-6.549,13.756-13.485,10.282-21.874s-11.442-10.229-22.736-8.2A14.835,14.835,0,0,1,295.5,81.931c2.033-11.3.193-19.264-8.2-22.739s-15.326.858-21.876,10.283a14.831,14.831,0,0,1-24.359,0c-6.55-9.424-13.485-13.755-21.874-10.281s-10.229,11.442-8.2,22.735a14.835,14.835,0,0,1-17.223,17.227c-11.3-2.033-19.264-.193-22.74,8.2s.858,15.325,10.283,21.875a14.831,14.831,0,0,1,0,24.359c-9.424,6.55-13.756,13.486-10.282,21.874s11.443,10.23,22.739,8.2a14.831,14.831,0,0,1,17.223,17.227c-2.032,11.294-.191,19.261,8.2,22.736s15.325-.858,21.875-10.284a14.831,14.831,0,0,1,24.359,0c6.55,9.424,13.486,13.756,21.874,10.282s10.229-11.442,8.2-22.736a14.836,14.836,0,0,1,17.223-17.228c11.3,2.033,19.264.193,22.74-8.2S334.6,160.134,325.178,153.585Z" transform="translate(-169.84 -58)" fill="#f3f9ff"/>
      <circle id="Ellipse_17" data-name="Ellipse 17" cx="44.494" cy="44.494" r="44.494" transform="translate(38.912 38.911)" fill="#dceefd"/>
      <path id="Path_30" data-name="Path 30" d="M300.705,144.371a44.443,44.443,0,0,1-77.715,29.514A43.836,43.836,0,0,0,252.5,185.157,44.529,44.529,0,0,0,297,140.664a43.836,43.836,0,0,0-11.272-29.514A44.172,44.172,0,0,1,300.705,144.371Z" transform="translate(-172.807 -60.967)" fill="#fff"/>
      <path id="Path_31" data-name="Path 31" d="M288.767,114.191a43.836,43.836,0,0,0-29.514-11.272,44.528,44.528,0,0,0-44.494,44.494,43.838,43.838,0,0,0,11.272,29.514,44.443,44.443,0,1,1,62.736-62.736Z" transform="translate(-172.14 -60.3)" fill="#d0e7fe"/>
    </g>
    <g id="paperplane" transform="translate(110.36 115.33)">
      <path id="Path_32" data-name="Path 32" d="M111.859,135.341l19.947,9.973,59.84-26.6Z" transform="translate(-111.859 -118.719)" fill="#9aeec5"/>
      <path id="Path_33" data-name="Path 33" d="M136.309,161.937l-3.324-16.622,59.84-26.6Z" transform="translate(-113.038 -118.719)" fill="#7be6b1"/>
      <path id="Path_34" data-name="Path 34" d="M136.506,163.509l6.649-13.3,16.622-3.324Z" transform="translate(-113.235 -120.291)" fill="#60dfa0"/>
      <path id="Path_35" data-name="Path 35" d="M143.548,148.639l16.622,6.649,33.245-36.569Z" transform="translate(-113.628 -118.719)" fill="#9aeec5"/>
    </g>
    <g id="board" transform="translate(231.986 113.942)">
      <path id="Path_36" data-name="Path 36" d="M553.346,341.492H250.916a10.239,10.239,0,0,1-10.24-10.24V127.489a10.239,10.239,0,0,1,10.24-10.24h302.43a10.239,10.239,0,0,1,10.24,10.24V331.253a10.239,10.239,0,0,1-10.24,10.24Z" transform="translate(-240.676 -117.249)" fill="#224380"/>
      <rect id="Rectangle_79" data-name="Rectangle 79" width="299.305" height="200.638" transform="translate(11.802 11.802)" fill="#f3f9ff"/>
      <path id="Path_37" data-name="Path 37" d="M386.16,256.5h-86.55a3.934,3.934,0,0,0-3.934,3.935v39.341a3.934,3.934,0,0,0,3.935,3.934h86.55a3.935,3.935,0,0,0,3.934-3.934V260.434a3.934,3.934,0,0,0-3.935-3.934Z" transform="translate(-243.746 -125.022)" fill="#dae7ff"/>
      <path id="Path_38" data-name="Path 38" d="M386.16,252.5h-86.55a3.934,3.934,0,0,0-3.934,3.935v39.341a3.934,3.934,0,0,0,3.935,3.934h86.55a3.935,3.935,0,0,0,3.934-3.934V256.434a3.934,3.934,0,0,0-3.935-3.934Z" transform="translate(-243.746 -124.799)" fill="#fff"/>
      <path id="Path_39" data-name="Path 39" d="M382.16,169.5h-86.55a3.934,3.934,0,0,0-3.934,3.935v39.341a3.934,3.934,0,0,0,3.935,3.934h86.55a3.935,3.935,0,0,0,3.934-3.934V173.434a3.934,3.934,0,0,0-3.935-3.934Z" transform="translate(-243.523 -120.166)" fill="#dae7ff"/>
      <path id="Path_40" data-name="Path 40" d="M382.16,165.5h-86.55a3.934,3.934,0,0,0-3.934,3.935v39.341a3.934,3.934,0,0,0,3.935,3.934h86.55a3.935,3.935,0,0,0,3.934-3.934V169.434a3.934,3.934,0,0,0-3.935-3.934Z" transform="translate(-243.523 -119.943)" fill="#fff"/>
      <rect id="Rectangle_80" data-name="Rectangle 80" width="43.275" height="5.901" transform="translate(91.429 55.393)" fill="#7266d5"/>
      <rect id="Rectangle_81" data-name="Rectangle 81" width="31.472" height="5.901" transform="translate(103.231 55.393)" fill="#8484ef"/>
      <rect id="Rectangle_82" data-name="Rectangle 82" width="43.275" height="5.901" transform="translate(91.429 67.195)" fill="#7266d5"/>
      <rect id="Rectangle_83" data-name="Rectangle 83" width="23.605" height="5.901" transform="translate(111.099 67.195)" fill="#8484ef"/>
      <rect id="Rectangle_84" data-name="Rectangle 84" width="43.275" height="5.901" transform="translate(91.429 78.997)" fill="#7266d5"/>
      <rect id="Rectangle_85" data-name="Rectangle 85" width="7.868" height="5.901" transform="translate(126.835 78.998)" fill="#8484ef"/>
      <path id="Path_41" data-name="Path 41" d="M312.8,202.53a12.786,12.786,0,1,1,0-25.572v5.9a6.885,6.885,0,1,0,6.885,6.885h5.9A12.8,12.8,0,0,1,312.8,202.53Z" transform="translate(-243.988 -120.582)" fill="#fff0c6"/>
      <path id="Path_42" data-name="Path 42" d="M326.337,189.743h-5.9a6.893,6.893,0,0,0-6.885-6.885v-5.9a12.8,12.8,0,0,1,12.786,12.786Z" transform="translate(-244.744 -120.582)" fill="#ffcb01"/>
      <path id="Path_43" data-name="Path 43" d="M512.986,223.5H458.72a9.044,9.044,0,0,0-9.044,9.045v67.832a9.045,9.045,0,0,0,9.044,9.044h54.266a9.045,9.045,0,0,0,9.044-9.044V232.544a9.044,9.044,0,0,0-9.044-9.044Z" transform="translate(-252.342 -123.18)" fill="#dae7ff"/>
      <path id="Path_44" data-name="Path 44" d="M512.986,219.5H458.72a9.044,9.044,0,0,0-9.044,9.044v67.832a9.045,9.045,0,0,0,9.044,9.044h54.266a9.045,9.045,0,0,0,9.044-9.044V228.544a9.044,9.044,0,0,0-9.044-9.044Z" transform="translate(-252.342 -122.957)" fill="#fff"/>
      <path id="Path_45" data-name="Path 45" d="M486.655,274.3a22.61,22.61,0,1,1,22.61-22.61A22.61,22.61,0,0,1,486.655,274.3Zm0-40.7a18.089,18.089,0,1,0,18.089,18.089A18.089,18.089,0,0,0,486.655,233.6Z" transform="translate(-253.144 -123.492)" fill="#8484ef"/>
      <path id="Path_46" data-name="Path 46" d="M486.655,274.3a22.61,22.61,0,0,1,0-45.221,2.261,2.261,0,0,1,0,4.523,18.089,18.089,0,1,0,18.089,18.089,2.261,2.261,0,0,1,4.523,0A22.638,22.638,0,0,1,486.655,274.3Z" transform="translate(-253.144 -123.492)" fill="#7266d5"/>
      <circle id="Ellipse_18" data-name="Ellipse 18" cx="4.522" cy="4.522" r="4.522" transform="translate(249.338 123.675)" fill="#4e3ccb"/>
      <path id="Path_47" data-name="Path 47" d="M496.368,286.552H478.279a2.261,2.261,0,0,0,0,4.523h18.089a2.261,2.261,0,1,0,0-4.523Z" transform="translate(-253.813 -126.7)" fill="#4e3ccb"/>
      <path id="Path_48" data-name="Path 48" d="M496.368,296.131H478.279a2.261,2.261,0,0,0,0,4.523h18.089a2.261,2.261,0,1,0,0-4.523Z" transform="translate(-253.813 -127.235)" fill="#7266d5"/>
      <path id="Path_49" data-name="Path 49" d="M527.16,154.5h-5.665v1.888h5.665Zm-11.33,0h-5.665v1.888h5.665Zm-11.33,0h-5.665v1.888H504.5Zm-11.33,0H487.5v1.888h5.665Zm-11.33,0h-5.665v1.888h5.665Zm-11.33,0h-5.665v1.888h5.665Zm-11.33,0h-5.665v1.888h5.665Zm-11.33,0h-5.665v1.888h5.665Zm-10.632,1.942h0l0,0v0l0,0h0l0,.006h0l0,0h0l0,0h0l0,0h0l-.006.009h0l0,.006h0l0,0h0l0,.007h0l0,0h0l-.006.009h0l-.006.01h0l-.006.009h0l-.006.01h0l-.011.021h0l-.011.021h0l-.011.021h0l-.006.01h0l-.006.01h0l-.006.01h0l-.006.01h0l-.006.01h0l-.006.01h0l-.01.021h0c-.052.1-.1.212-.142.322h0l-.034.091h0l-.008.023h0l0,.011h0l0,.01h0l0,.011h0l0,.011h0l0,.011h0l0,.011h0l0,.011h0l0,.011h0l0,.011h0l0,.01h0l0,.011h0v0h0l0,.008h0l0,.011h0l0,.011h0l0,.011h0v0h0l0,.007h0v0h0l0,.007h0v0h0l0,.007h0v0h0l0,.006h0v0l0,.006v.007l0,.006v0h0l0,.006v.008l0,.006v.007l0,.006v0h0l0,.006v.016h0l0,.006v.007l0,.006h0v0h0l0,.007h0v.01h0v0h0l0,.007h0v.046h0v0h0l0,.007h0v.01h0v.014h0v.018h0v.268h0v.025h0v.011h0v.011h0v.01h0v.011h0v.017h0v0h0v0h0v.011h0v0h0v.006h0v0h0v.345h0v.012h0v.012h0v.012h0v.012h0v.012h0v.013h0V162h1.888v-3.576a2.043,2.043,0,0,1,.28-1.035l-1.644-.951Zm1.347,11.233h-1.888v5.665h1.888Zm0,11.33h-1.888v5.665h1.888Zm0,11.33h-1.888V196h1.888Zm.922,9.15-1.04,1.577a3.9,3.9,0,0,0,1.615.609h0l.018,0h0l.013,0h.006l.012,0h.006l.012,0h0l.012,0h3.843V199.8h-3.375a1.874,1.874,0,0,1-1.124-.315Zm15.829.335h-5.665v1.888h5.665Zm11.33,0h-5.665v1.888h5.665Zm11.33,0h-5.665v1.888h5.665Zm11.33,0h-5.665v1.888h5.665Zm11.33,0h-5.665v1.888h5.665Zm11.33,0H506.3v1.888h5.665Zm11.33,0h-5.665v1.888H523.3Zm7.8-3.332h-1.888v1.287a2.037,2.037,0,0,1-1.142,1.836l.836,1.693a3.947,3.947,0,0,0,1.7-1.623h0l.006-.01h0l0,0h0l.006-.01h0l.009-.016h0l.006-.01h0l.006-.01h0l0,0h0l0,0h0l0,0h0l.006-.01h0l0,0h0l0-.01h0l0-.009h0l0,0h0l0,0h0l0,0h0l0-.01h0l0,0h0l0-.006h0l0,0h0l0-.01h0l0,0h0l0,0h0l0,0h0l0-.01h0l0,0h0l0,0h0l0,0h0l0-.009h0l0,0h0l0-.006h0l0,0h0l0,0h0l0,0h0l0,0h0l0,0h0l0,0h0l0-.01h0l0,0h0l0,0h0l0,0h0l0,0h0l0,0h0l0,0h0l0,0h0l0,0h0l0,0h0l0,0v0l0,0h0l0,0h0l0,0h0l0,0h0l0,0v0l0,0v0l0,0v-.007l0,0v0l0,0v0l0,0h0l0,0v0l0,0h0l0,0h0l0,0v0l0,0h0l0,0v-.006h0l0-.006h0l0,0h0l0,0h0l0,0h0l0,0v0l0,0v-.008l0,0v0l0,0V199.2h0l0-.006h0l0,0h0l0,0h0l0,0v-.006h0l0,0h0l0,0h0l0-.01h0l0,0h0l0-.006v-.008l0,0h0l0,0v0l0,0h0l0-.006V199.1l0,0h0v-.011l0,0h0l0,0v0l0,0h0v0h0l0,0h0l0,0v-.008l0,0h0l0,0v-.006h0l0,0h0v-.007l0,0h0V199h0l0,0v-.008l0,0v-.011h0l0,0v-.008l0,0v-.011h0l0,0v-.008l0,0v-.006h0v0h0l0,0V198.9h0l0-.006h0v-.01h0v-.035h0v-.023h0v-.029h0v0h0v-.023h0v-.016h0v-.011h0v-.009h0V198.7h0v-.009h0v-.035h0v-.01h0v-.009h0v-.01h0v-.017h0v-.011h0v-.077h0v-.029h0v-.029h0v-.012h0v-.019h0v-.011h0v-.019h0v0h0v0h0v0h0v-.012h0v-.011h0v-.006h0v0h0v-.006h0v-.011h0V198.3h0V198.3h0v-.011h0v-.031h0v-.006h0v0h0v-.318h0v-.1h0V197.8h0v-.031h0v-1.277Zm0-11.33h-1.888v5.665h1.888Zm0-11.33h-1.888v5.665h1.888Zm0-11.33h-1.888v5.665h1.888Zm-3.934-8v1.888a2.046,2.046,0,0,1,1.88,1.236l1.734-.749a3.88,3.88,0,0,0-.223-.439h0l-.008-.015h0l0,0h0l0-.008h0l0,0h0l-.009-.014h0l-.006-.009v0l0,0v0l0,0h0l0,0v0l0,0v0l0,0h0l0-.006v0l0,0v0l0,0,0,0,0,0v0l0,0v0l0,0,0,0v0l0,0v0l0,0,0,0v0l0,0,0,0,0,0v0l0,0v0l0,0v0l0,0v0l0,0h0l0,0,0,0,0,0v0l0,0v0l0,0v0l0,0h0l0,0v0l0,0h0l0,0,0,0,0,0,0,0,0,0v0l0,0v0l0,0v0l0,0v0l0,0h0l0,0v0l0,0h0l0,0h0l0,0h0l0,0h0l0,0h0l0,0h0l0,0h0l0,0h0l0,0h0l0,0h0l0,0h0l0,0h0l-.01-.014h0l0,0h0l-.007-.009h0l-.01-.014h0l-.01-.014h0l-.007-.009h0l0,0h0l-.01-.014h0a3.949,3.949,0,0,0-1.59-1.245h0l-.016-.007h0l-.016-.007h0l-.016-.007h0l-.011,0h0l-.006,0h0l-.016-.007h0l-.011,0h0l-.023-.008h0l-.011,0h0l-.017-.007h0l-.006,0h0l-.011,0h0l-.016-.007h0l-.006,0h0l-.01,0h0l0,0h0l-.011,0h0l-.006,0h0l-.006,0h0l0,0h0l-.011,0h0l-.006,0h0l-.017-.006h0l-.017-.006h0l-.011,0h0l0,0h0l-.011,0h0l0,0h0l-.011,0h0l0,0h0l-.011,0h0l-.006,0h0l-.011,0h0l0,0h0l-.011,0h0l-.017,0h0l-.006,0h0l-.011,0h0l-.011,0h0l-.006,0h0l0,0h0l-.006,0h0l0,0h0l-.01,0h-.007l0,0h0l-.006,0h-.007l-.011,0h-.006l-.011,0H528.2l-.011,0h-.007l-.011,0h-.007l-.011,0h-.007l-.01,0h-.007l-.011,0h-.006l-.011,0h-.007l-.011,0h-.006l-.011,0h-.007l-.011,0h-.128l-.011,0H527.9l-.011,0h-.146l-.011,0h-.026l-.011,0h-.522c-.01-.033-.011-.033-.013-.033Z" transform="translate(-251.617 -119.329)" fill="#c3d3f3"/>
    </g>
    <g id="check" transform="translate(521.85 97.183)">
      <circle id="Ellipse_19" data-name="Ellipse 19" cx="25.965" cy="25.965" r="25.965" fill="#ffe8aa"/>
      <circle id="Ellipse_20" data-name="Ellipse 20" cx="20.195" cy="20.195" r="20.195" transform="translate(5.77 5.77)" fill="#ffe18d"/>
      <circle id="Ellipse_21" data-name="Ellipse 21" cx="14.425" cy="14.425" r="14.425" transform="translate(11.54 11.54)" fill="#ffcb01"/>
      <path id="Path_50" data-name="Path 50" d="M573.243,132.428h-.06a1.438,1.438,0,0,1-1.034-.5l-4.327-5.049a1.442,1.442,0,1,1,2.19-1.876l3.322,3.874,7.674-7.57a1.443,1.443,0,0,1,2.025,2.056l-8.776,8.655a1.452,1.452,0,0,1-1.013.414Z" transform="translate(-548.781 -100.693)" fill="#fff"/>
    </g>
    <g id="man_sit_down" data-name="man sit down" transform="translate(497.671 253.593)">
      <path id="Path_51" data-name="Path 51" d="M565.825,279.131c-1.583,3.091-.4,4.643-.72,5.924s-1.841,3.923-1.761,5.123,1.921,1.247,2.522,2.785-.161,3.642,1.42,5.191,6.831.83,6.728,2.43-2.664,7.686-2.664,7.686l14.97-.72s-2-8.485-1.361-12.088,1.379-16.732-3.354-18.012S567.506,275.848,565.825,279.131Z" transform="translate(-524.372 -265.792)" fill="#f1b282"/>
      <path id="Path_52" data-name="Path 52" d="M600.078,387.556s6.607-8.755,9.838-8.226l3.884,3.88a.907.907,0,0,1,0,1.281l-.605.606s3.188.325,4.47,1.605,9.471,9.49,9.471,9.49,1.88,1.323.348,2.855c-2.192,2.194-9.51-4.455-13.593-4.964a22.477,22.477,0,0,0-7.1.182Z" transform="translate(-526.422 -271.528)" fill="#0b224e"/>
      <path id="Path_53" data-name="Path 53" d="M560.679,370.671c-36.5,7.786-38.611,15.524-38.611,19.432,0,7.935,8.869,8.055,17.9,7.922,10.357-.152,28.176-2.437,28.176-2.437Z" transform="translate(-522.068 -271.046)" fill="#0b224e"/>
      <path id="Path_54" data-name="Path 54" d="M601.619,378.432c-.076-.605-3.374-.468-8.286.079a15.184,15.184,0,0,0,3.412-13.178c-.914-4.722-12.642.762-30.613,2.589s-39.142,11.352-39.142,22.236c0,8.693,9.748,8.529,21.779,9.139s50.413-2.742,52.85-3.5S601.924,380.869,601.619,378.432Z" transform="translate(-522.343 -270.644)" fill="#102b5e"/>
      <path id="Path_55" data-name="Path 55" d="M538.317,310.369a6.544,6.544,0,0,1-1.125-2.41c-.161-1.125,0-6.105-1.928-9.479s-11.087-2.79-11.092-1.928c-.013,1.928,5.909.656,7.073,5.141.31,1.2-.783,2.352-1.3,2.09-1.377-.7-1.869-4.137-3.033-4.017-.883.092-1.486,5.663.8,7.952,1.615,1.615,5.462,4.981,6.506,7.791S539.294,312.19,538.317,310.369Z" transform="translate(-522.185 -266.872)" fill="#f1b282"/>
      <path id="Path_56" data-name="Path 56" d="M572.619,308.663s-11.575,11.575-14.469,19.647c0,0-14.774-18.125-15.84-17.972s-8.682,6.549-8.225,8.148,12.642,23.379,15.536,24.9,14.469.762,16.449,0S575.97,317.04,572.619,308.663Z" transform="translate(-522.738 -267.585)" fill="#1eaf69"/>
      <path id="Path_57" data-name="Path 57" d="M593.5,312.373c2.027.128,5.2-.048,10.052,23.912,4.874,24.064,5.178,31.832-5.026,32.289s-18.124-3.046-24.673-3.5S586.034,312.373,593.5,312.373Z" transform="translate(-524.882 -267.792)" fill="#1eaf69"/>
      <path id="Path_58" data-name="Path 58" d="M586.346,300.151a.961.961,0,0,1,1.225.389l1.863,3.172-18.9,9.345.809-4.911a2.472,2.472,0,0,1,1.42-1.851Z" transform="translate(-524.773 -267.105)" fill="#60dfa0"/>
      <path id="Path_59" data-name="Path 59" d="M578.69,287.518c-2.092.57,1.272-5.459-.673-6.656s-14.188,1.795-14.2-5.684,8.515-10.022,12.4-10.022,18.772.9,18.772,15.108-9.722,15.856-10.695,14.509S587.739,285.05,578.69,287.518Z" transform="translate(-524.398 -265.156)" fill="#0b224e"/>
      <path id="Path_60" data-name="Path 60" d="M560.58,359.787c-3.661.989-12.758,8.063-9.752,11.04,1.815,1.8,7.108-3.046,9.646-3.148s5.686.711,7.006-.812-3.661-8.353-5.28-7.717S564.241,358.8,560.58,359.787Z" transform="translate(-523.64 -270.401)" fill="#f1b282"/>
      <path id="Path_61" data-name="Path 61" d="M598.92,319.333c-3.365-7.851-9.595-15.992-10.662-15.992s-15.85,5.962-17.516,8.225-5.331,10.662-5.178,16.3c.1,3.813.735,15.525.727,24.245a31.255,31.255,0,0,0-5.6,1.5c-1.39.641,4.722,12.794,6.549,13.251s31.832-1.523,33.2-10.2S603.032,328.928,598.92,319.333Z" transform="translate(-524.212 -267.288)" fill="#2ccd7f"/>
      <path id="Path_62" data-name="Path 62" d="M582.967,336.661c0,3.811.413,10.591.631,13.907-3.165.428-16.96,2.763-16.96,2.763h0a20.812,20.812,0,0,0,11.056-8.742c2.816-4.788,1.841-15.851,8.872-20.022C585.168,327.671,582.967,333.125,582.967,336.661Z" transform="translate(-524.556 -268.473)" fill="#1eaf69"/>
      <path id="Path_63" data-name="Path 63" d="M600.244,378.917c-3.281,3.95-14.212,14.7-36.9,16.065-10.966.033-9.9-2.589-9.9-2.589,24.122-1.349,36.049-6.755,41.369-13.019C596.985,379.132,598.843,378.97,600.244,378.917Z" transform="translate(-523.818 -271.507)" fill="#0b224e"/>
      <path id="Path_64" data-name="Path 64" d="M576.7,300.062a7.716,7.716,0,0,1-2.872,4.131,11.215,11.215,0,0,0,.6-2.3c.067-.951-1.768-1.086-3.593-1.364a13.3,13.3,0,0,0,5.869-.47Z" transform="translate(-524.79 -267.105)" fill="#cd916a"/>
    </g>
    <g id="man" transform="translate(88.517 202.733)">
      <path id="Path_65" data-name="Path 65" d="M145.179,285.738s-.389,10.374-.144,16.744c.286,7.43,3.073,9.671,3,17.644,0,0-27.925,4.049-38.8,1.219-1.48-.385-1.93-21.622-1.93-21.622l.782-13.985H99.874a1.468,1.468,0,0,1-1.466-1.523,55.113,55.113,0,0,1,3.948-18.643c5.111-11.879,15.061-13.731,23.761-13.963,27.9-.743,30.282,34.128,30.282,34.128h-11.22Z" transform="translate(-89.265 -213.539)" fill="#1b90fb"/>
      <path id="Path_66" data-name="Path 66" d="M146.3,293.889s-.192-15.645-1.227-17.927l-3.132,22.84Z" transform="translate(-91.696 -214.899)" fill="#1277d7"/>
      <path id="Path_67" data-name="Path 67" d="M111.574,287.306s1.493-5.685,1.737-7.6a50.13,50.13,0,0,1,2.078,13.369c0,6.845-4.988,4.418-4.988,4.418Z" transform="translate(-89.935 -215.109)" fill="#1277d7"/>
      <path id="Path_68" data-name="Path 68" d="M141.943,288.14s10.473,31.033,17.823,27.438c4.917-2.406-1.915-27.822-1.915-27.822Z" transform="translate(-91.696 -215.558)" fill="#f1b282"/>
      <path id="Path_69" data-name="Path 69" d="M102.756,403.558l-4.6,9.616,8.182,3.928,5.912-9.027Z" transform="translate(-89.252 -222.022)" fill="#d7866d"/>
      <path id="Path_70" data-name="Path 70" d="M162.009,411.331l.263,8.116-9.713,1.843-.927-9.959Z" transform="translate(-92.236 -222.456)" fill="#d7866d"/>
      <path id="Path_71" data-name="Path 71" d="M124.456,340.611,143.471,372.5,148.71,405.9a1.973,1.973,0,0,0,1.95,1.667h11.931a2.02,2.02,0,0,0,2-2.319c-1.254-8.455-5.583-37.632-7.047-47.217-1.719-11.257-2.553-20.5-10.321-35.1l-22.07,3.087Z" transform="translate(-90.719 -217.521)" fill="#0b224e"/>
      <path id="Path_72" data-name="Path 72" d="M137.329,323.3s-2.914,29.236-5.024,39.789c-1.682,8.408-16.075,35.658-19.222,41.552a1.466,1.466,0,0,1-1.8.685l-11.021-4.11a1.692,1.692,0,0,1-1.007-2.14l10.811-31.063s1.028-22.134.377-30.33c-.7-8.853,5.515-16.612,5.515-16.612Z" transform="translate(-89.307 -217.417)" fill="#102b5e"/>
      <path id="Path_73" data-name="Path 73" d="M174.232,330.371H93.446a4.721,4.721,0,0,1-4.721-4.72V292.476a4.721,4.721,0,0,1,4.72-4.721h80.786a4.721,4.721,0,0,1,4.721,4.72V325.65a4.72,4.72,0,0,1-4.722,4.721Z" transform="translate(-88.725 -215.558)" fill="#8484ef"/>
      <path id="Path_74" data-name="Path 74" d="M145.278,285.754s-.318,3.15,1.8,3.984c1.352.533,8.6.336,12.351-.651s.548-9.9-6.1-9.352S145.278,282.94,145.278,285.754Z" transform="translate(-91.881 -215.109)" fill="#d7866d"/>
      <path id="Path_75" data-name="Path 75" d="M151.89,416.3c-2.512,0-2.893,7.022-2.9,8.36-.01,2.3,3.053,2.784,4.464,2.919s6.707-.173,9.606,1.225,13.914-.615,13.983-4.034-5.714-2.594-8.841-4.305c-2.693-1.473-4.013-6.03-5.911-6.03-1.838,0-4.137,4.694-6.489,4.694S153.045,416.3,151.89,416.3Z" transform="translate(-92.089 -222.629)" fill="#0b224e"/>
      <path id="Path_76" data-name="Path 76" d="M100.132,408.665c-2.233-1.15-5.787,4.917-6.405,6.1-1.06,2.036,1.439,3.873,2.631,4.639s6.041,2.918,7.979,5.488,12.651,5.825,14.279,2.816-3.892-4.922-5.889-7.875c-1.719-2.543-.806-7.2-2.494-8.067-1.634-.841-5.827,2.279-7.919,1.2S101.159,409.194,100.132,408.665Z" transform="translate(-88.99 -222.299)" fill="#0b224e"/>
      <path id="Path_77" data-name="Path 77" d="M139.926,226.011c1.533,2.994.388,4.5.7,5.737s1.784,3.8,1.706,4.962-1.861,1.208-2.443,2.7.157,3.527-1.376,5.028-6.616.8-6.516,2.354,2.58,7.443,2.58,7.443-.179,4-7.339,4-7.16-4.7-7.16-4.7,1.938-8.218,1.318-11.707-1.335-16.2,3.248-17.445S138.3,222.833,139.926,226.011Z" transform="translate(-90.475 -211.971)" fill="#d7866d"/>
      <path id="Path_78" data-name="Path 78" d="M132.6,248a6.81,6.81,0,0,0,.3,1.34,5.582,5.582,0,0,1-1.879-4.168,10.565,10.565,0,0,0,7.173,1.023l-.009.009C136.139,246.988,132.529,246.691,132.6,248Z" transform="translate(-91.086 -213.181)" fill="#cd916a"/>
      <path id="Path_79" data-name="Path 79" d="M134.273,211.289s8.2,4.169,8.2,8.84c0,3.763-1.156,7.115-8.956,7.115-3.755,0-1.722,8.984-2.672,8.984-1.661,0-3.642-4.815-5.561-4.815-2.745,0-.627,15.237-3.466,15.237-3.841,0-10.833-5.247-10.833-15.525,0-13.8,11.772-15.893,15.744-16.109S134.273,211.289,134.273,211.289Z" transform="translate(-89.968 -211.289)" fill="#0b224e"/>
      <rect id="Rectangle_86" data-name="Rectangle 86" width="7.553" height="3.777" transform="translate(75.386 84.132)" fill="#fff"/>
      <rect id="Rectangle_87" data-name="Rectangle 87" width="7.553" height="15.107" transform="translate(75.386 87.909)" fill="#7266d5"/>
      <rect id="Rectangle_88" data-name="Rectangle 88" width="7.553" height="7.553" transform="translate(64.056 84.132)" fill="#fff"/>
      <rect id="Rectangle_89" data-name="Rectangle 89" width="7.553" height="11.33" transform="translate(64.056 91.686)" fill="#7266d5"/>
      <rect id="Rectangle_90" data-name="Rectangle 90" width="7.553" height="15.107" transform="translate(52.726 84.132)" fill="#fff"/>
      <rect id="Rectangle_91" data-name="Rectangle 91" width="7.553" height="3.777" transform="translate(52.726 99.239)" fill="#7266d5"/>
      <path id="Path_80" data-name="Path 80" d="M118.756,316.172H97.04a.473.473,0,0,1-.472-.472v-2.833a.473.473,0,0,1,.472-.472h21.716a.473.473,0,0,1,.472.472V315.7a.473.473,0,0,1-.472.472Z" transform="translate(-89.163 -216.933)" fill="#fff"/>
      <path id="Path_81" data-name="Path 81" d="M107.426,308.172H97.04a.473.473,0,0,1-.472-.472v-2.833a.473.473,0,0,1,.472-.472h10.386a.474.474,0,0,1,.472.472V307.7A.473.473,0,0,1,107.426,308.172Z" transform="translate(-89.163 -216.487)" fill="#fff"/>
      <path id="Path_82" data-name="Path 82" d="M117.469,327.226c-.137-3.224-4.109-6.207-5.438-6.889-.553-2.669-2.7-14.271-2.5-17.814.164-2.9.544-10.6,1.446-14.767H100.077c-.281,3.9-.4,14.106-.025,16.214.428,2.422,3.877,15.75,4.485,17.921-.695,2.145-1.815,6.139-1.372,8.462.625,3.283,8.286,4.651,10.475,4.885S117.626,330.9,117.469,327.226Z" transform="translate(-89.344 -215.558)" fill="#d7866d"/>
    </g>
    <g id="woman" transform="translate(266.105 185.877)">
      <path id="Path_83" data-name="Path 83" d="M295.052,419.475l-.26,8.162s10.6,10.3,8,6.046S302,420.468,302,420.468Z" transform="translate(-277.815 -206.055)" fill="#b4652d"/>
      <path id="Path_84" data-name="Path 84" d="M333.342,420.539l.9,8.117s11.951,8.7,8.773,4.855-2.647-12.972-2.647-12.972Z" transform="translate(-279.967 -206.114)" fill="#b4652d"/>
      <path id="Path_85" data-name="Path 85" d="M321.8,221.237c2.833.414,3.453,5.035,4.525,6.219s2.766,2.784,2.873,3.842-2.579,1.5-1.911,4.012,1.263,5.683-2.495,7.18-2.516,4.875-2.073,8.2.122,4.367-1.227,4.544a19.517,19.517,0,0,1-9.329-2.243c-3.634-1.8.668-9.728.629-13.824-.076-7.887-7.631-12.937-1.711-15.794S319.409,220.887,321.8,221.237Z" transform="translate(-278.599 -194.976)" fill="#b4652d"/>
      <path id="Path_86" data-name="Path 86" d="M347.8,208.7s-2.706-2.956-2.193-6.344,1.54-2.989,1.755-.865c.244,2.4,3.608-.1,1.535-6.849-.6-1.944,2.557-1.87,3.047,2.764.244,2.307,4.29,1.057,2.072,10.935C352.2,216.45,347.8,208.7,347.8,208.7Z" transform="translate(-280.648 -193.437)" fill="#f1b282"/>
      <path id="Path_87" data-name="Path 87" d="M295.562,316.93c-6.086,14.128-.378,43.247.763,49.172-4.017,11.574-1.956,50.006-1.956,50.006l7.536-.224s9.1-41.751,9.1-50.431c0-8.486,3.747-47.679,3.747-47.679S299.855,306.963,295.562,316.93Z" transform="translate(-277.704 -200.095)" fill="#0b224e"/>
      <path id="Path_88" data-name="Path 88" d="M309.156,315.683s-2.234,1.137-1.2,15.2c1,13.581,15.8,27.778,17.54,36.706-.569,20.307,6.5,48.62,6.5,48.62l7.276-.236s2.446-33.505,1.26-49.268c-1.243-16.529-9.643-52.135-9.643-52.135S313.518,312.7,309.156,315.683Z" transform="translate(-278.535 -200.166)" fill="#102b5e"/>
      <path id="Path_89" data-name="Path 89" d="M350.556,210.369c-.5-.661-4.217-.909-6.2.248s-1.818,17.03-3.968,24.8-11.161,12.318-16.451,13.641-6.283-1.984-11.45-1.984c0,0-11.2,1.818-15.335,3.141s-20.172,21.991-20.338,30.589c-.143,7.449,12.735,22.581,16.183,26.5-1.181,2.343-1.846,3.891-1.137,4.423,12.9,10.251,40.509,2.811,41.171,1.158s-5.437-12.517-6.531-28.108a37.782,37.782,0,0,1,.264-8.322,10.889,10.889,0,0,0,4.4-4.292,10.679,10.679,0,0,0,.7-7.786c5.113-6.737,12.41-10.8,15.544-19.65C351.37,233.526,351.052,211.031,350.556,210.369Zm-51.092,77.712a38.379,38.379,0,0,1-3.326,12.759c-2.454-4.9-6.872-14.071-8.1-18.98,2.447-3.335,9.589-15.439,9.589-15.439a67.834,67.834,0,0,1,1.833,21.66Z" transform="translate(-276.812 -194.351)" fill="#1b90fb"/>
      <path id="Path_90" data-name="Path 90" d="M348.447,438.448c-.014,1.346-.3,1.311-1.311,1.413-.432.043-3.892.032-6.379.018a3.254,3.254,0,0,1-3.118-2.387c-.41-1.49-1.01-3.155-1.667-3.282-1.311-.252-1.311,5.7-1.311,5.7h-1.211a49.426,49.426,0,0,1-1.211-9.834c0-3.853,1.715-4.642,2.826-4.642,3.683,0,2.75,4.485,7.7,7.238S348.467,436.53,348.447,438.448Z" transform="translate(-279.906 -206.387)" fill="#0b224e"/>
      <path id="Path_91" data-name="Path 91" d="M308.76,438.823c-.014,1.346-.3,1.311-1.311,1.413-.432.043-3.892.032-6.379.018a3.254,3.254,0,0,1-3.118-2.387c-.41-1.49-1.01-3.155-1.667-3.282-1.311-.252-1.311,5.7-1.311,5.7h-1.211a49.417,49.417,0,0,1-1.211-9.834c0-3.853,1.716-4.642,2.826-4.642,3.683,0,2.75,4.485,7.7,7.238S308.78,436.905,308.76,438.823Z" transform="translate(-277.69 -206.408)" fill="#0b224e"/>
      <path id="Path_92" data-name="Path 92" d="M318.859,228.567s-1.541-3.734,3.171-4.85,1.973-10.64-10.923-9.151-6.366,10.612-13.641,13.918c-9.441,4.291-3.14,9.444-13.393,18.023-8.1,6.779-.7,28.439,16.121,25.876s20.089-19.1,17.857-25.174.62-6.077,1.736-8.928S321.711,231.171,318.859,228.567Z" transform="translate(-277.033 -194.608)" fill="#0b224e"/>
    </g>
  </g>
</svg>
