<?xml version="1.0" encoding="utf-8"?>
<!-- Generator: Adobe Illustrator 19.0.0, SVG Export Plug-In . SVG Version: 6.00 Build 0)  -->
<svg version="1.1" xmlns="http://www.w3.org/2000/svg" xmlns:xlink="http://www.w3.org/1999/xlink" x="0px" y="0px" width="1200px"
	 height="800px" viewBox="0 0 1200 800" style="enable-background:new 0 0 1200 800;" xml:space="preserve">
<style type="text/css">
	.st0{fill:url(#SVGID_1_);}
	.st1{fill:#FFF48A;}
	.st2{fill:#758AC9;}
	.st3{fill:#FFFFFF;}
	.st4{opacity:0.2;fill:#261006;}
	.st5{fill:#7DB254;}
	.st6{fill:#538933;}
	.st7{fill:#85B23F;}
	.st8{fill:#62992E;}
	.st9{fill:#427C2E;}
	.st10{fill:#A2D9F2;}
	.st11{fill:#E0F277;}
</style>
<g id="BACKGROUND">
	<g id="Capa_5">
	</g>
	
		<linearGradient id="SVGID_1_" gradientUnits="userSpaceOnUse" x1="600.0001" y1="799.8379" x2="600.0001" y2="-0.1626" gradientTransform="matrix(-1 0 0 -1 1200 799.6768)">
		<stop  offset="0" style="stop-color:#BBEAED"/>
		<stop  offset="0.2117" style="stop-color:#B3E2ED"/>
		<stop  offset="0.5395" style="stop-color:#9DCDED"/>
		<stop  offset="0.9404" style="stop-color:#7AABED"/>
		<stop  offset="1" style="stop-color:#74A5ED"/>
	</linearGradient>
	<rect y="-0.2" class="st0" width="1200" height="800"/>
	<circle class="st1" cx="600.4" cy="102.4" r="67.6"/>
	<g>
		<path class="st2" d="M600.4,628.9c-1.9-8.6-5.1-16.7-9.6-23.6L328.2,207.9c-15.5-23.4-40.6-23.4-56.1,0L9.6,605.3
			c-4.5,6.9-7.7,15-9.6,23.6H600.4z"/>
		<path class="st3" d="M233.4,408.9l40-71l22,23l29-39l105.7,87.7l-14.8-70v0l-87-131.7c-15.5-23.4-40.6-23.4-56.1,0l-71.8,108.7v0
			l29-7.7L233.4,408.9z"/>
		<path class="st4" d="M600.4,628.9c-1.9-8.6-5.1-16.7-9.6-23.6L328.2,207.9c-7.7-11.7-17.9-17.6-28-17.6v438.6H600.4z"/>
	</g>
	<g>
		<path class="st2" d="M883.3,666.1c-1.5-6.9-4.1-13.4-7.7-18.9L665.1,328.6c-12.4-18.8-32.5-18.8-44.9,0L409.7,647.2
			c-3.6,5.5-6.2,12-7.7,18.9H883.3z"/>
		<path class="st3" d="M585.1,458.6l39.5-56.2l18,61.1l35-44l37,44.1l3.4-55L707,392l-41.9-63.4c-12.4-18.8-32.5-18.8-44.9,0
			l-57.6,87.1l0,0l23.2-6.2L585.1,458.6z"/>
		<path class="st4" d="M883.3,666.1c-1.5-6.9-4.1-13.4-7.7-18.9L665.1,328.6c-6.2-9.4-14.3-14.1-22.5-14.1v351.6H883.3z"/>
	</g>
	<g>
		<path class="st2" d="M1198.1,623.5c-1.5-6.9-4.1-13.4-7.7-18.9L979.9,286.1c-12.4-18.8-32.5-18.8-44.9,0L724.4,604.6
			c-3.6,5.5-6.2,12-7.7,18.9H1198.1z"/>
		<path class="st3" d="M890.9,437.2l45-47l16.5,43l36-38.3l73.1,52.8l-11.9-56.1l0,0l-69.8-105.6c-12.4-18.8-32.5-18.8-44.9,0
			l-57.6,87.1l0,0l15.6,11L890.9,437.2z"/>
		<path class="st4" d="M1198.1,623.5c-1.5-6.9-4.1-13.4-7.7-18.9L979.9,286.1c-6.2-9.4-14.3-14.1-22.5-14.1v351.6H1198.1z"/>
	</g>
	<g>
		<path class="st5" d="M75.2,618.4c0,0,43.1-170.1,170.1-170.1s170.6,170.1,170.6,170.1H75.2z"/>
		<path class="st5" d="M428,687.1c0,0,43.1-170.1,170.1-170.1s170.6,170.1,170.6,170.1H428z"/>
		<path class="st6" d="M387.9,647.6c0,0,19-74.9,74.9-74.9c55.9,0,75.1,74.9,75.1,74.9H387.9z"/>
		<path class="st5" d="M768.7,618.4c0,0,43.1-170.1,170.1-170.1s170.6,170.1,170.6,170.1H768.7z"/>
		<path class="st6" d="M652.7,647.6c0,0,19-74.9,74.9-74.9c55.9,0,75.1,74.9,75.1,74.9H652.7z"/>
	</g>
	<path class="st7" d="M0,306.3c0,0,93.1,330,598.4,330s601.6-330,601.6-330v493.5H0V306.3z"/>
	<path class="st8" d="M0,448.3c0,0,93.1,214,598.4,214s601.6-214,601.6-214v351.5H0V448.3z"/>
	<path class="st6" d="M0,541.9c0,0,93.1,157.9,598.4,157.9S1200,541.9,1200,541.9V800H0V541.9z"/>
	<rect y="756.4" class="st9" width="1200" height="43.6"/>
</g>
<g id="OBJECTS">
	<path class="st3" d="M1143.2,171.6h-65h-52.9c0.1,0,0.2,0,0.3,0c-5-0.2-9.1-4.3-9.1-9.4c0-5.1,4-9.2,9.1-9.4c-0.1,0-0.2,0-0.3,0
		h24.6c5.2,0,9.4-4.2,9.4-9.4s-4.2-9.4-9.4-9.4h-45.5c0.1,0,0.2,0,0.3,0c-5-0.2-9.1-4.3-9.1-9.4c0-5.1,4-9.2,9.1-9.4
		c-0.1,0-0.2,0-0.3,0h45.5c5.2,0,9.4-4.2,9.4-9.4c0-5.2-4.2-9.4-9.4-9.4H912.1c-5.2,0-9.4,4.2-9.4,9.4c0,5.2,4.2,9.4,9.4,9.4H963
		c5.2,0,9.4,4.2,9.4,9.4c0,5.2-4.2,9.4-9.4,9.4h-15.3h-35.6H809.8c-5.2,0-9.4,4.2-9.4,9.4s4.2,9.4,9.4,9.4h102.3h35.6h13.2
		c5.2,0,9.4,4.2,9.4,9.4c0,5.2-4.2,9.4-9.4,9.4h-20.5c-5.2,0-9.4,4.2-9.4,9.4c0,5.2,4.2,9.4,9.4,9.4h65h72.9h65
		c5.2,0,9.4-4.2,9.4-9.4C1152.6,175.8,1148.4,171.6,1143.2,171.6z"/>
	<path class="st3" d="M713.5,220.4h-93.6h-23.3H503c-4.4,0-8,3.6-8,8c0,4.4,3.6,8,8,8h93.4c4.4,0,8,3.6,8,8c0,4.4-3.6,8-8,8h-43.1
		c-4.4,0-8,3.6-8,8c0,4.4,3.6,8,8,8h41.4c4.4,0,8,3.6,8,8c0,4.4-3.6,8-8,8h-21.3h-43.3c-4.4,0-8,3.6-8,8c0,4.4,3.6,8,8,8h43.3h73.6
		h43.3c4.4,0,8-3.6,8-8c0-4.4-3.6-8-8-8h-41c0.1,0,0.2,0,0.3,0c-4.3-0.1-7.7-3.6-7.7-8c0-4.3,3.4-7.8,7.7-8c-0.1,0-0.2,0-0.3,0h20.9
		c4.4,0,8-3.6,8-8c0-4.4-3.6-8-8-8h-38.6c0.1,0,0.2,0,0.3,0c-4.3-0.1-7.7-3.6-7.7-8c0-4.3,3.4-7.8,7.7-8c-0.1,0-0.2,0-0.3,0h81.9
		c4.4,0,8-3.6,8-8C721.5,223.9,717.9,220.4,713.5,220.4z"/>
	<path class="st3" d="M330.6,87.3H217.1c0.1,0,0.2,0,0.3,0c-4.9-0.2-8.8-4.2-8.8-9.1c0-4.9,3.9-8.9,8.8-9.1c-0.1,0-0.2,0-0.3,0h64.4
		c5,0,9.1-4.1,9.1-9.1c0-5-4.1-9.1-9.1-9.1H147.7c-5,0-9.1,4.1-9.1,9.1c0,5,4.1,9.1,9.1,9.1h29.1c5,0,9.1,4.1,9.1,9.1
		c0,5-4.1,9.1-9.1,9.1H70.1c-5,0-9.1,4.1-9.1,9.1c0,5,4.1,9.1,9.1,9.1h104.7c5,0,9.1,4.1,9.1,9.1c0,5-4.1,9.1-9.1,9.1h-24.3h-49.5
		c-5,0-9.1,4.1-9.1,9.1c0,5,4.1,9.1,9.1,9.1h49.5h84.3h49.5c5,0,9.1-4.1,9.1-9.1c0-5-4.1-9.1-9.1-9.1h-46.9c0.1,0,0.2,0,0.3,0
		c-4.9-0.2-8.8-4.2-8.8-9.1c0-4.9,3.9-8.9,8.8-9.1c-0.1,0-0.2,0-0.3,0h93.3c5,0,9.1-4.1,9.1-9.1C339.8,91.4,335.7,87.3,330.6,87.3z"
		/>
	<g>
		<ellipse class="st10" cx="598.1" cy="692.9" rx="321.8" ry="31.4"/>
		<path class="st9" d="M266.7,692.9c0,0,10.8-30.9,33.5-31.4C323,661,321,692.9,321,692.9s31.3-20.3,48.3,10.7c0,0,34.3-12,51.7,18
			C421,721.7,272,719.5,266.7,692.9z"/>
		<path class="st9" d="M929.2,692.9c0,0-10.8-30.9-33.5-31.4c-22.8-0.5-20.8,31.4-20.8,31.4s-31.3-20.3-48.3,10.7
			c0,0-34.3-12-51.7,18C774.8,721.7,923.8,719.5,929.2,692.9z"/>
		<ellipse class="st7" cx="536.9" cy="680.8" rx="26.3" ry="3.5"/>
		<ellipse class="st11" cx="679.9" cy="694.2" rx="59.8" ry="7.1"/>
		<ellipse class="st11" cx="470.9" cy="704.6" rx="23.8" ry="3.2"/>
	</g>
</g>
</svg>
